<svg id="Layer_1" enable-background="new 0 0 256 256" height="512" viewBox="0 0 256 256" width="512" xmlns="http://www.w3.org/2000/svg"><path d="m238.24 194.406-57.594 57.594h-162.886v-220.48h220.48z" fill="#fcc24c"/><path d="m17.76 31.521h10v220.48h-10z" fill="#fce06a"/><path d="m228.24 31.521v172.885l10-10v-162.885z" fill="#dea42e"/><path d="m180.646 254h-162.886c-1.104 0-2-.896-2-2v-220.479c0-1.104.896-2 2-2h220.48c1.104 0 2 .896 2 2v162.886c0 .53-.211 1.039-.586 1.414l-57.594 57.594c-.375.374-.884.585-1.414.585zm-160.886-4h160.057l56.422-56.422v-160.057h-216.479zm218.48-55.594h.01z" fill="#690589"/><path d="m180.646 252v-57.594h57.594z" fill="#526faa"/><path d="m180.646 254c-.258 0-.518-.05-.765-.152-.748-.31-1.235-1.039-1.235-1.848v-57.594c0-1.104.896-2 2-2h57.594c.809 0 1.538.487 1.848 1.235.31.747.139 1.607-.434 2.179l-57.594 57.594c-.382.383-.894.586-1.414.586zm2-57.594v50.765l50.765-50.765z" fill="#690589"/><path d="m27.76 89.669c-1.104 0-2-.896-2-2v-12c0-1.104.896-2 2-2s2 .896 2 2v12c0 1.105-.895 2-2 2z" fill="#690589"/><path d="m115.23 4h25.54v55.041h-25.54z" fill="#f4efed"/><path d="m134.77 4h6v55.041h-6z" fill="#d6d1cf"/><path d="m115.23 4h6v55.041h-6z" fill="#fff"/><path d="m140.77 61.041h-25.54c-1.104 0-2-.896-2-2v-55.041c0-1.104.896-2 2-2h25.54c1.104 0 2 .896 2 2v55.041c0 1.105-.895 2-2 2zm-23.54-4h21.54v-51.041h-21.54z" fill="#690589"/></svg>